<svg xmlns="http://www.w3.org/2000/svg" width="20" height="20" viewBox="0 0 20 20">
    <g fill="none" fill-rule="evenodd">
        <g fill="#1A405D" fill-rule="nonzero">
            <g>
                <g>
                    <path d="M7.786 4.375c-1.975 0-3.567 1.61-3.567 3.581l.01.288c.015.19.045.379.088.563l.008.03-.098.01c-1.685.202-2.977 1.63-2.977 3.377 0 1.887 1.508 3.401 3.389 3.401H15.36c1.881 0 3.389-1.514 3.389-3.401 0-1.863-1.535-3.376-3.414-3.376l-.267.01-.032.003.002.046c0-1.468-1.192-2.655-2.646-2.655l-.217.009c-.36.03-.705.134-1.016.299l-.072.041-.051-.12c-.567-1.25-1.807-2.106-3.25-2.106zm0 1.25c1.22 0 2.218.942 2.32 2.177.046.545.704.758 1.064.393l.072-.087c.259-.371.693-.606 1.15-.606.765 0 1.397.629 1.397 1.405 0 .149-.019.282-.056.403l-.044.116c-.225.509.278 1.036.797.836.28-.108.561-.164.85-.164 1.193 0 2.164.957 2.164 2.126 0 1.198-.95 2.151-2.139 2.151H4.64c-1.19 0-2.139-.953-2.139-2.151s.95-2.152 2.139-2.152c.176 0 .33.019.487.059.542.136.977-.454.687-.931-.225-.37-.344-.798-.344-1.244 0-1.284 1.035-2.331 2.317-2.331z" transform="translate(-319 -407) translate(219 402) translate(100 5)"/>
                </g>
            </g>
        </g>
    </g>
</svg>
